<svg xmlns="http://www.w3.org/2000/svg" viewBox="0 0 348.5 47.75"><defs><style>.cls-1{fill:#fff;}</style></defs><g id="Layer_2" data-name="Layer 2"><g id="Layer_1-2" data-name="Layer 1"><path class="cls-1" d="M0,1H14.6l8.09,30.65L31.25,1H43L28.35,46.69H14.41Z"/><path class="cls-1" d="M55.49,47.72c-5,0-9.08-1.25-12.3-3.75a18.06,18.06,0,0,1-1-27.3c3.22-3,7.49-4.6,12.76-4.6,11.38,0,18.74,7.63,18.74,18,0,.73-.06,1.52-.13,2.37H50.36v.4c0,4,1.91,6.11,5.39,6.11a4.73,4.73,0,0,0,5.07-4.14l12.63.79C71.14,43.25,64.7,47.72,55.49,47.72Zm4.54-22v-.2c0-3.62-1.78-5.59-4.8-5.59s-4.74,2-4.74,5.26v.53Z"/><path class="cls-1" d="M75.3,12.76h12v4.8c1.85-3.75,5.2-5.72,9.68-5.72,7.82,0,10.91,3.95,10.91,12.5V46.57h-13V25.72c0-3.16-.93-4.74-3.1-4.74s-3.61,1.65-3.61,4.81V46.57H75.3Z"/><path class="cls-1" d="M135.37,29.67c0-7.17,3.3-12.71,8.75-15.6V.92h-13V15.66a9.94,9.94,0,0,0-8.09-3.82c-8.09,0-13.62,6.64-13.62,17.89s5.2,17.76,13.29,17.76a10,10,0,0,0,9.08-5.13l.06,4.21h12.24V45.25C138.67,42.34,135.37,36.79,135.37,29.67Zm-4.21,4.6c0,2.63-1.65,4.47-3.75,4.47-3.09,0-4.28-2.89-4.28-8.81,0-6.38,1.19-9.54,4.08-9.54,2.63,0,4,1.45,4,4.28Z"/><path class="cls-1" d="M231.36,41.84c-2.17,3.22-6.77,5.19-12.63,5.19-12,0-19.93-8.81-19.93-23.35S207.22,0,220.9,0c10.46,0,17.24,5.85,18.88,16.25l-13.22,1.31c-.59-4.54-3-7.1-6.12-7.1-5,0-7,4.27-7,13.35,0,8.62,2.24,12.76,7.37,12.76A5.84,5.84,0,0,0,227,31.38l.07-.53h-7.56v-9.6H240V46.57h-6.71Z"/><path class="cls-1" d="M273.78,46.57h-12v-4.8c-1.84,3.75-5.13,5.72-9.6,5.72-7.9,0-10.92-3.94-10.92-12.49V12.76h13V33.61c0,3.16.92,4.74,3.09,4.74s3.55-1.64,3.55-4.8V12.76h13Z"/><path class="cls-1" d="M282.08,29.73c0-7.63,2.55-13.13,6.71-15.89V12.76H275.37V46.57h13.42v-.89C284.57,43,282.08,37.47,282.08,29.73Z"/><path class="cls-1" d="M327.4,47.39c-4.93-.82-8.75-2.73-11.52-5.72a18.08,18.08,0,0,1,3.46-27.1c3.68-2.46,8.16-3.31,13.35-2.44C343.91,14,349.92,22.74,348.21,33c-.12.72-.32,1.49-.52,2.32l-22.84-3.82-.06.39c-.65,3.9.87,6.35,4.31,6.93a4.74,4.74,0,0,0,5.68-3.26l12.32,2.86C343.58,45.56,336.48,48.91,327.4,47.39Zm8.1-21c0-.06,0-.12,0-.19.59-3.57-.84-5.81-3.82-6.31s-5,1.17-5.54,4.41l-.08.52Z"/><path class="cls-1" d="M316.76,43.81a18.08,18.08,0,0,1-1.05-27.3,16.07,16.07,0,0,1,2.68-2V.92H305.44V15.66a10,10,0,0,0-8.1-3.82c-8.09,0-13.61,6.64-13.61,17.89S288.92,47.49,297,47.49a10,10,0,0,0,9.08-5.13l.07,4.21h12.23V44.91A17.89,17.89,0,0,1,316.76,43.81Zm-11.32-9.54c0,2.63-1.65,4.47-3.75,4.47-3.1,0-4.28-2.89-4.28-8.81,0-6.38,1.18-9.54,4.08-9.54,2.63,0,3.95,1.45,3.95,4.28Z"/><path class="cls-1" d="M185.67,11.91c-4.8,0-7.69,2.56-8.81,7.69V12.76H165.54v.93c5.9,2.77,9.47,8.49,9.47,16s-3.57,13.17-9.47,16v.94h12.9V30.26c0-4.47,2.17-6.64,6.57-6.64a12.57,12.57,0,0,1,2.44.26V12A15.06,15.06,0,0,0,185.67,11.91Z"/><path class="cls-1" d="M136.92,29.67c0-10.73,7.37-17.83,18.29-17.83s18.28,7.1,18.28,17.83-7.3,17.82-18.28,17.82S136.92,40.32,136.92,29.67Zm22.83,0c0-6.32-1.39-9.34-4.54-9.34s-4.54,3-4.54,9.34S152,39,155.21,39,159.75,36,159.75,29.67Z"/></g></g></svg>