<svg xmlns="http://www.w3.org/2000/svg" viewBox="0 0 16.16 16.72"><defs><style>.cls-1{fill:#fff;}</style></defs><g id="Layer_2" data-name="Layer 2"><g id="Layer_1-2" data-name="Layer 1"><path class="cls-1" d="M7.2,0c.35.05.7.09,1,.17a6.53,6.53,0,0,1,4.59,3.64,6.54,6.54,0,0,1-.52,6.8,5,5,0,0,1-.36.48l.11.13,3.8,3.94A.91.91,0,0,1,16,16.31a.88.88,0,0,1-1.31.21,1.37,1.37,0,0,1-.17-.17l-3.8-3.94-.07-.11c-.44.23-.82.47-1.23.64a6.54,6.54,0,0,1-5.52-.07A6.56,6.56,0,0,1,.24,8.46,6.44,6.44,0,0,1,1,3.34,6.63,6.63,0,0,1,5.37.15c.32-.07.64-.1,1-.15ZM6.76,11.74a5,5,0,1,0-5-5A5,5,0,0,0,6.76,11.74Z"/></g></g></svg>