<svg xmlns="http://www.w3.org/2000/svg" viewBox="0 0 106.67 91.23"><defs><style>.cls-1{fill:#b13634;}.cls-2,.cls-3{fill:#221f20;}.cls-3{font-size:10.78px;font-family:Montserrat-Bold, Montserrat;font-weight:700;}.cls-4{letter-spacing:-0.01em;}.cls-5{letter-spacing:0.01em;}</style></defs><g id="Layer_2" data-name="Layer 2"><g id="Layer_1-2" data-name="Layer 1"><path class="cls-1" d="M21.68,52A199.26,199.26,0,0,1,50.73,33c4-2.15,7.94-4.15,11.88-6H47.37L38.59,0,29.82,27H1.43l23,16.69Z"/><path class="cls-1" d="M61.66,32.68C78,23.79,94,17.75,106.67,15.1c-13.67.78-34.15,7.52-55.33,19C17.77,52.35-4.82,75.64.88,86.14,3.8,91.53,13.6,92.5,27,89.72c-8,.45-13.68-1.14-15.79-5C5.49,74.2,28.08,50.91,61.66,32.68Z"/><polygon class="cls-2" points="15.9 70.49 38.59 54 38.59 54 15.9 70.49"/><polygon class="cls-2" points="52.79 43.69 52.79 43.69 75.53 27.16 52.79 43.69"/><polygon class="cls-2" points="61.56 70.69 52.79 43.69 38.59 54 61.56 70.69"/><path class="cls-2" d="M75.53,27.16c-4.39,2-8.83,4.23-13.27,6.64-16.12,8.76-30.2,18.94-39.65,28.68a63.27,63.27,0,0,0-6.71,8L38.59,54h0l14.2-10.31h0Z"/><text class="cls-3" transform="translate(13.19 80.59)"><tspan class="cls-4">P</tspan><tspan class="cls-5" x="7.78" y="0">L</tspan><tspan x="14.36" y="0">ANET MEDIA</tspan></text></g></g></svg>